<mxfile host="app.diagrams.net" modified="2020-11-21T10:41:53.089Z" agent="5.0 (Windows NT 10.0; Win64; x64) AppleWebKit/537.36 (KHTML, like Gecko) Chrome/87.0.4280.66 Safari/537.36" etag="iSxM03TiPyMN64ASTqAC" version="13.9.1" type="github">
  <diagram id="2XYw5rfrzcdDfsoRY1aY" name="Page-1">
    <mxGraphModel dx="1399" dy="613" grid="1" gridSize="10" guides="1" tooltips="1" connect="1" arrows="1" fold="1" page="1" pageScale="1" pageWidth="827" pageHeight="1169" math="0" shadow="0">
      <root>
        <mxCell id="0" />
        <mxCell id="1" parent="0" />
        <mxCell id="bIGdx2mvvDFSyfbHBPX8-4" style="edgeStyle=orthogonalEdgeStyle;rounded=0;orthogonalLoop=1;jettySize=auto;html=1;exitX=0.5;exitY=1;exitDx=0;exitDy=0;exitPerimeter=0;entryX=0.5;entryY=0;entryDx=0;entryDy=0;endArrow=open;endFill=0;" parent="1" source="bIGdx2mvvDFSyfbHBPX8-2" edge="1">
          <mxGeometry relative="1" as="geometry">
            <mxPoint x="281" y="95" as="targetPoint" />
          </mxGeometry>
        </mxCell>
        <mxCell id="bIGdx2mvvDFSyfbHBPX8-2" value="Вход" style="strokeWidth=2;html=1;shape=mxgraph.flowchart.terminator;whiteSpace=wrap;" parent="1" vertex="1">
          <mxGeometry x="232" y="5" width="100" height="60" as="geometry" />
        </mxCell>
        <mxCell id="KQFqtlPDkMT88FlhOWFB-3" style="edgeStyle=orthogonalEdgeStyle;rounded=0;orthogonalLoop=1;jettySize=auto;html=1;entryX=0.5;entryY=0;entryDx=0;entryDy=0;endArrow=open;endFill=0;" edge="1" parent="1" source="gcUCHksnC8rrGLkKe8yG-3" target="B0YSBYVzR49liGQwaU1Z-23">
          <mxGeometry relative="1" as="geometry">
            <Array as="points">
              <mxPoint x="281" y="160" />
            </Array>
          </mxGeometry>
        </mxCell>
        <mxCell id="gcUCHksnC8rrGLkKe8yG-3" value="size = 25" style="rounded=0;whiteSpace=wrap;html=1;" parent="1" vertex="1">
          <mxGeometry x="226" y="95" width="110" height="45" as="geometry" />
        </mxCell>
        <mxCell id="KQFqtlPDkMT88FlhOWFB-7" style="edgeStyle=orthogonalEdgeStyle;rounded=0;orthogonalLoop=1;jettySize=auto;html=1;entryX=0;entryY=0.5;entryDx=0;entryDy=0;endArrow=open;endFill=0;" edge="1" parent="1" source="B0YSBYVzR49liGQwaU1Z-10" target="B0YSBYVzR49liGQwaU1Z-30">
          <mxGeometry relative="1" as="geometry">
            <Array as="points">
              <mxPoint x="380" y="390" />
              <mxPoint x="-125" y="390" />
            </Array>
          </mxGeometry>
        </mxCell>
        <mxCell id="B0YSBYVzR49liGQwaU1Z-10" value="j = z = a = d = b = &lt;br&gt;c = q = 0" style="rounded=0;whiteSpace=wrap;html=1;" parent="1" vertex="1">
          <mxGeometry x="324.5" y="325" width="110" height="50" as="geometry" />
        </mxCell>
        <mxCell id="B0YSBYVzR49liGQwaU1Z-11" style="edgeStyle=orthogonalEdgeStyle;rounded=0;orthogonalLoop=1;jettySize=auto;html=1;exitX=0.5;exitY=1;exitDx=0;exitDy=0;entryX=0;entryY=0.5;entryDx=0;entryDy=0;" parent="1" target="B0YSBYVzR49liGQwaU1Z-14" edge="1">
          <mxGeometry relative="1" as="geometry">
            <mxPoint x="274.5" y="262" as="sourcePoint" />
          </mxGeometry>
        </mxCell>
        <mxCell id="KQFqtlPDkMT88FlhOWFB-5" style="edgeStyle=orthogonalEdgeStyle;rounded=0;orthogonalLoop=1;jettySize=auto;html=1;entryX=0.5;entryY=0;entryDx=0;entryDy=0;endArrow=open;endFill=0;" edge="1" parent="1" source="B0YSBYVzR49liGQwaU1Z-14" target="B0YSBYVzR49liGQwaU1Z-10">
          <mxGeometry relative="1" as="geometry" />
        </mxCell>
        <mxCell id="KQFqtlPDkMT88FlhOWFB-6" style="edgeStyle=orthogonalEdgeStyle;rounded=0;orthogonalLoop=1;jettySize=auto;html=1;endArrow=open;endFill=0;" edge="1" parent="1" source="B0YSBYVzR49liGQwaU1Z-14" target="B0YSBYVzR49liGQwaU1Z-27">
          <mxGeometry relative="1" as="geometry" />
        </mxCell>
        <mxCell id="B0YSBYVzR49liGQwaU1Z-14" value="НЕ открыт?" style="rhombus;whiteSpace=wrap;html=1;direction=south;" parent="1" vertex="1">
          <mxGeometry x="237.5" y="250" width="86" height="90" as="geometry" />
        </mxCell>
        <mxCell id="B0YSBYVzR49liGQwaU1Z-15" value="Да, не открыт" style="text;html=1;strokeColor=none;fillColor=none;align=center;verticalAlign=middle;whiteSpace=wrap;rounded=0;" parent="1" vertex="1">
          <mxGeometry x="191.5" y="270" width="40" height="20" as="geometry" />
        </mxCell>
        <mxCell id="B0YSBYVzR49liGQwaU1Z-16" value="Нет, открыт" style="text;html=1;strokeColor=none;fillColor=none;align=center;verticalAlign=middle;whiteSpace=wrap;rounded=0;" parent="1" vertex="1">
          <mxGeometry x="349.5" y="270" width="40" height="20" as="geometry" />
        </mxCell>
        <mxCell id="KQFqtlPDkMT88FlhOWFB-4" style="edgeStyle=orthogonalEdgeStyle;rounded=0;orthogonalLoop=1;jettySize=auto;html=1;endArrow=open;endFill=0;" edge="1" parent="1" source="B0YSBYVzR49liGQwaU1Z-23" target="B0YSBYVzR49liGQwaU1Z-14">
          <mxGeometry relative="1" as="geometry" />
        </mxCell>
        <mxCell id="B0YSBYVzR49liGQwaU1Z-23" value="Открыть path =&lt;br&gt;&quot;database.txt&quot;" style="rounded=0;whiteSpace=wrap;html=1;" parent="1" vertex="1">
          <mxGeometry x="225.5" y="170" width="110" height="45" as="geometry" />
        </mxCell>
        <mxCell id="B0YSBYVzR49liGQwaU1Z-27" value="Выход" style="strokeWidth=2;html=1;shape=mxgraph.flowchart.terminator;whiteSpace=wrap;" parent="1" vertex="1">
          <mxGeometry x="60" y="265" width="100" height="60" as="geometry" />
        </mxCell>
        <mxCell id="KQFqtlPDkMT88FlhOWFB-8" style="edgeStyle=orthogonalEdgeStyle;rounded=0;orthogonalLoop=1;jettySize=auto;html=1;entryX=0.5;entryY=0;entryDx=0;entryDy=0;endArrow=open;endFill=0;" edge="1" parent="1" source="B0YSBYVzR49liGQwaU1Z-30" target="B0YSBYVzR49liGQwaU1Z-33">
          <mxGeometry relative="1" as="geometry" />
        </mxCell>
        <mxCell id="B0YSBYVzR49liGQwaU1Z-30" value="Конец&lt;br&gt;файла?" style="rhombus;whiteSpace=wrap;html=1;direction=south;" parent="1" vertex="1">
          <mxGeometry x="-168" y="410" width="86" height="90" as="geometry" />
        </mxCell>
        <mxCell id="B0YSBYVzR49liGQwaU1Z-33" value="str = fin" style="rounded=0;whiteSpace=wrap;html=1;" parent="1" vertex="1">
          <mxGeometry x="-180" y="525" width="110" height="50" as="geometry" />
        </mxCell>
        <mxCell id="B0YSBYVzR49liGQwaU1Z-41" style="edgeStyle=orthogonalEdgeStyle;rounded=0;orthogonalLoop=1;jettySize=auto;html=1;endArrow=open;endFill=0;" parent="1" target="B0YSBYVzR49liGQwaU1Z-40" edge="1">
          <mxGeometry relative="1" as="geometry">
            <mxPoint x="-125" y="665" as="sourcePoint" />
          </mxGeometry>
        </mxCell>
        <mxCell id="B0YSBYVzR49liGQwaU1Z-40" value="sr1 = sr1 + str[i]" style="rounded=0;whiteSpace=wrap;html=1;" parent="1" vertex="1">
          <mxGeometry x="-180" y="695" width="110" height="50" as="geometry" />
        </mxCell>
        <mxCell id="B0YSBYVzR49liGQwaU1Z-44" value="sr1 = &quot;&quot;;&lt;br&gt;j = j + 1" style="rounded=0;whiteSpace=wrap;html=1;" parent="1" vertex="1">
          <mxGeometry x="-180" y="865" width="110" height="50" as="geometry" />
        </mxCell>
        <mxCell id="B0YSBYVzR49liGQwaU1Z-61" value="1" style="ellipse;whiteSpace=wrap;html=1;aspect=fixed;" parent="1" vertex="1">
          <mxGeometry x="-160" y="935" width="70" height="70" as="geometry" />
        </mxCell>
        <mxCell id="KQFqtlPDkMT88FlhOWFB-1" value="" style="shape=hexagon;perimeter=hexagonPerimeter2;whiteSpace=wrap;html=1;fixedSize=1;" vertex="1" parent="1">
          <mxGeometry x="-185" y="600" width="120" height="70" as="geometry" />
        </mxCell>
      </root>
    </mxGraphModel>
  </diagram>
</mxfile>
